<svg xmlns="http://www.w3.org/2000/svg" xmlns:xlink="http://www.w3.org/1999/xlink" width="561.203" height="766.526" viewBox="0 0 561.203 766.526">
  <defs>
    <clipPath id="clip-path">
      <rect id="사각형_5" data-name="사각형 5" width="561.203" height="766.526" fill="#fff"/>
    </clipPath>
  </defs>
  <g id="그룹_44" data-name="그룹 44" transform="translate(-229 -1189)">
    <g id="그룹_10" data-name="그룹 10" transform="translate(229 1189)">
      <g id="그룹_4" data-name="그룹 4" clip-path="url(#clip-path)">
        <path id="패스_2" data-name="패스 2" d="M561.146,401.372c-3.932,92.491-32.172,157.591-73.419,217.927C450.1,674.341,403.711,721,351.6,762.286c-7.966,6.312-12.31,5.679-17.91-2.589-15.147-22.366-14.105-17.125,4.215-32.244,59.522-49.119,111.1-105,147.888-173.523a35.974,35.974,0,0,0,2.1-3.758c1.126-2.891,4.324-6.23,1.953-8.823-2.949-3.224-5.8,1.028-8.371,2.321-60.84,30.565-131.4,17.741-177.237-32.536a145.281,145.281,0,0,1-33.078-60.958c-.723-2.684-.011-6.6-3.207-7.469-3.824-1.039-5.184,2.963-7.225,5.36-49.993,58.751-133.2,70.733-196.413,28.309C-20.84,419.229-21.57,291.592,62.931,233.388a63.394,63.394,0,0,1,6.3-4.137c7.792-4.1,6.494-7.612.064-12.183C51.379,204.33,37.566,188.03,29.1,167.582,2.773,104.037,31.989,34.974,97.512,9.459,155.158-12.99,224.369,4.407,259.264,62.833c30.23,50.615,16.046,116.906-33.546,153.61-8.326,6.161-6.716,8.948.593,13.657,31.5,20.3,52.223,48.671,62.594,84.71.951,3.306.9,8.324,4.646,9.135,3.765.813,5.616-3.8,7.822-6.464,51.307-61.843,144.477-69.419,204.974-19.144,37.63,31.271,56.025,71.926,54.8,103.034M258.648,355.5c.5-60.407-48.165-110.632-105.971-112.971A113.328,113.328,0,0,0,34.826,354C33.76,413.57,85.488,465.743,145.706,466.321c61.474.59,112.438-49.417,112.942-110.821M525.1,412.182A111.53,111.53,0,0,0,414.262,300.933C354.691,300.5,302.36,347.984,301.6,413.14c-.7,59.6,51.061,111.342,109.256,111.293,64.739-.056,114.384-48.835,114.241-112.25M54.99,120.347c.47,6.762-.1,13.5,1.918,20.257,16.992,56.98,83.555,83.92,135.794,54.781,35.1-19.58,53.3-56.142,45.061-90.555C226.175,56.4,175.449,26.319,126.435,37.4,85.091,46.746,53.248,83.661,54.99,120.347" transform="translate(0 0)" fill="#fff"/>
        <path id="패스_3" data-name="패스 3" d="M148.718,268.569c.071,19.169-13.45,32.754-32.483,32.636a32.388,32.388,0,0,1-32.216-32.3c-.133-17.621,14.446-32.661,31.842-32.85,18.573-.2,32.786,13.863,32.856,32.513" transform="translate(30.43 85.494)" fill="#fff"/>
      </g>
    </g>
    <text id="Artist_club" data-name="Artist club" transform="translate(408.765 1817.44)" fill="red" font-size="63" font-family="Pretendard-Bold, Pretendard" font-weight="700"><tspan x="-150.209" y="0">artist club</tspan></text>
  </g>
</svg>
