<svg xmlns="http://www.w3.org/2000/svg" xmlns:xlink="http://www.w3.org/1999/xlink" width="722" height="664" viewBox="0 0 722 664">
  <defs>
    <clipPath id="clip-path">
      <rect id="사각형_5" data-name="사각형 5" width="146" height="200" transform="translate(0.039 -0.154)" fill="#fff"/>
    </clipPath>
  </defs>
  <g id="blank-img" transform="translate(-1987 -4412)">
    <rect id="사각형_23" data-name="사각형 23" width="722" height="664" transform="translate(1987 4412)" opacity="0.1"/>
    <g id="그룹_15" data-name="그룹 15" transform="translate(2274.961 4644.154)">
      <g id="그룹_4" data-name="그룹 4" transform="translate(0 0)" clip-path="url(#clip-path)">
        <path id="패스_2" data-name="패스 2" d="M146.515,104.8c-1.027,24.149-8.4,41.147-19.17,56.9-9.825,14.371-21.937,26.554-35.544,37.334-2.08,1.648-3.214,1.483-4.676-.676-3.955-5.84-3.683-4.471,1.1-8.419,15.541-12.825,29.009-27.415,38.613-45.307a9.4,9.4,0,0,0,.55-.981c.294-.755,1.129-1.627.51-2.3-.77-.842-1.514.269-2.186.606a38.4,38.4,0,0,1-46.277-8.5A37.933,37.933,0,0,1,70.8,117.54c-.189-.7,0-1.723-.837-1.95-1-.271-1.354.774-1.886,1.4-13.053,15.34-34.778,18.468-51.283,7.391C-5.441,109.46-5.632,76.134,16.431,60.937a16.552,16.552,0,0,1,1.645-1.08c2.034-1.069,1.7-1.987.017-3.181A29.608,29.608,0,0,1,7.6,43.755C.724,27.164,8.352,9.131,25.46,2.47,40.511-3.392,58.582,1.15,67.693,16.406c7.893,13.215,4.19,30.524-8.759,40.108-2.174,1.609-1.753,2.336.155,3.566A37.939,37.939,0,0,1,75.432,82.2c.248.863.235,2.173,1.213,2.385s1.466-.993,2.042-1.688a38.3,38.3,0,0,1,53.519-5c9.825,8.165,14.628,18.78,14.308,26.9M67.533,92.82c.13-15.772-12.576-28.886-27.669-29.5a29.59,29.59,0,0,0-30.771,29.1c-.278,15.554,13.228,29.177,28.951,29.327A29.318,29.318,0,0,0,67.533,92.82m69.569,14.8a29.178,29.178,0,0,0-58.355.25c-.182,15.561,13.332,29.071,28.527,29.058,16.9-.015,29.866-12.751,29.828-29.309M14.358,31.422a23.484,23.484,0,0,0,.5,5.289,24.61,24.61,0,0,0,35.456,14.3C59.48,45.9,64.23,36.356,62.08,27.371c-3.026-12.645-16.27-20.5-29.068-17.606C22.217,12.205,13.9,21.844,14.358,31.422" transform="translate(-0.305 -0.168)" fill="#fff"/>
        <path id="패스_3" data-name="패스 3" d="M100.912,244.544a8.127,8.127,0,0,1-8.481,8.521,8.456,8.456,0,0,1-8.411-8.433,8.579,8.579,0,0,1,8.314-8.577,8.333,8.333,0,0,1,8.579,8.489" transform="translate(-54.442 -152.266)" fill="#fff"/>
        <path id="패스_4" data-name="패스 4" d="M291.172,293.032l-2.832-1.577-1.829,2.677-1.775-2.713-2.863,1.52-.311-3.227-3.241.016,1.224-3-2.878-1.493,2.479-2.089-1.855-2.659,3.166-.7-.406-3.216,3.127.854,1.135-3.037,2.372,2.209,2.416-2.161,1.074,3.059,3.144-.791-.47,3.207,3.151.761-1.907,2.622,2.437,2.138-2.907,1.435,1.164,3.026-3.241-.08Z" transform="translate(-178.571 -176.967)" fill="#fff"/>
      </g>
    </g>
  </g>
</svg>
