<svg xmlns="http://www.w3.org/2000/svg" width="38" height="31" viewBox="0 0 38 31">
  <g id="그룹_28" data-name="그룹 28" transform="translate(-1472.503 -340.161)">
    <path id="패스_33" data-name="패스 33" d="M26.725,1H0A1,1,0,0,1-1,0,1,1,0,0,1,0-1H26.725a1,1,0,0,1,1,1A1,1,0,0,1,26.725,1Z" transform="translate(1482.779 342.226)"/>
    <path id="선_4" data-name="선 4" d="M26.725,1H0A1,1,0,0,1-1,0,1,1,0,0,1,0-1H26.725a1,1,0,0,1,1,1A1,1,0,0,1,26.725,1Z" transform="translate(1482.779 355.581)"/>
    <path id="선_5" data-name="선 5" d="M26.725,1H0A1,1,0,0,1-1,0,1,1,0,0,1,0-1H26.725a1,1,0,0,1,1,1A1,1,0,0,1,26.725,1Z" transform="translate(1482.779 368.936)"/>
    <rect id="사각형_49" data-name="사각형 49" width="5" height="4" rx="1" transform="translate(1472.503 340.161)"/>
    <rect id="사각형_50" data-name="사각형 50" width="5" height="5" rx="1" transform="translate(1472.503 353.161)"/>
    <rect id="사각형_51" data-name="사각형 51" width="5" height="4" rx="1" transform="translate(1472.503 367.161)"/>
  </g>
</svg>
