<?xml version="1.0" encoding="UTF-8"?>
<svg id="_레이어_2" data-name="레이어_2" xmlns="http://www.w3.org/2000/svg" viewBox="0 0 2095.74 2095.71">
  <defs>
    <style>
      .cls-1 {
        fill: #fff;
      }
    </style>
  </defs>
  <g id="_레이어_1-2" data-name="레이어_1">
    <g id="mewF0l.tif">
      <g>
        <path class="cls-1" d="M805.62,0h483.77c2.15,1.16,4.49,1.11,6.83,1.13,58.29.53,116.54,2.06,174.77,4.74,56.62,2.61,112.91,7.69,168.32,20.15,65.05,14.62,127.36,36.81,183.96,72.42,110.31,69.4,186.61,165.96,228.12,289.86,21.73,64.87,32.9,131.65,37.23,199.64,3.42,53.83,5.96,107.75,6.12,161.71.63,213.51,2.44,427.02-1.21,640.52-.89,51.93-3,103.84-8.28,155.57-5.59,54.82-16.49,108.46-33.77,160.86-33.01,100.11-90.67,183.13-171.77,250.15-55.49,45.85-118.75,76.87-187.07,98.27-66.53,20.84-135.03,29.85-204.36,33.5-62.2,3.28-124.45,5.18-186.73,5.88-156.55,1.75-313.1,1.67-469.65.34-89.58-.76-179.17-2.36-268.52-9.69-49.2-4.04-97.67-12.44-145.14-26.16-87.11-25.17-165.29-66.18-230.95-129.68-41.48-40.12-77.09-84.59-103.85-135.91-38.35-73.55-59.66-152.15-69.31-234.16-6.7-56.95-7.93-114.24-9.97-171.47-.92-25.95-1.57-51.92-2.38-77.87-.07-2.24.53-4.75-1.78-6.4v-511.76c1.61-1.05,1.7-2.72,1.76-4.39.54-14.3,1.27-28.6,1.56-42.9,1.27-61.25,3.06-122.48,8.37-183.55,4.31-49.52,12.87-98.26,26.6-146.08,30-104.42,84.58-193.24,166.62-265.02,58.89-51.52,126.59-86.51,200.87-109.66,69.8-21.76,141.64-30.54,214.33-33.86,55.89-2.56,111.79-4.72,167.75-4.8,5.89,0,11.98.89,17.74-1.37ZM1049.15,1905.94c58.29,0,116.58.09,174.87-.02,84.94-.16,169.85-1.44,254.69-6.06,42.96-2.34,85.65-6.7,127.53-16.88,52.53-12.78,102.28-32.1,145.33-65.75,45.84-35.84,82.28-79.19,106.09-132.87,24.19-54.57,36.07-111.97,41.08-171,4.93-58.09,6.26-116.38,7.59-174.64,1-43.95,1.2-87.93,1.04-131.9-.67-180.52,3.01-361.07-4.04-541.55-1.49-38.27-3.11-76.51-8.01-114.54-6.41-49.82-18.19-98.16-39.54-143.79-32.88-70.26-84.01-123.46-152.56-159.44-57.49-30.18-119.86-43.53-183.97-49.23-61.07-5.43-122.37-7.04-183.64-8-72.27-1.13-144.56-1.42-216.84-1.41-132.9.02-265.81-.92-398.68,2.59-57.24,1.52-114.52,2.81-171.43,10.31-48.47,6.39-95.45,18.15-139.86,38.84-69.98,32.59-123.1,83.39-159.2,151.43-29.95,56.45-43.3,117.78-49.52,180.86-4.77,48.42-6.09,97.04-7.36,145.63-1.49,56.93-2.39,113.89-2.34,170.83.15,171.87-2.27,343.76,3.39,515.59,1.43,43.59,2.8,87.18,7.84,130.58,5.09,43.83,14.06,86.7,30.13,127.9,37.07,95.04,102.89,161.76,197.54,199.92,55.29,22.29,113.34,31.71,172.37,35.41,44.86,2.81,89.82,4.68,134.76,5.6,104.24,2.13,208.5,2.08,312.76,1.59Z"/>
        <path class="cls-1" d="M1587.09,1047.8c-1.13,301.53-245.16,538.24-539.04,537.7-296.75-.54-537.72-241.95-536.93-538.63.79-297.96,241.26-537.57,539.36-537.12,293.8.45,535.74,237.93,536.61,538.05ZM1048.79,1396.86c196.24-.67,348.93-159.59,349.38-348.8.45-192.09-156.02-349.39-349.43-349.67-191.64-.28-348.46,156.21-348.97,348.21-.51,192.91,155.83,349.81,349.02,350.26Z"/>
        <path class="cls-1" d="M1733.79,489.17c-.37,72.17-60.67,126.54-128.63,124.92-68.65-1.63-123.39-58.11-122.51-127.9.86-68.49,57.68-124.21,125.99-123.56,69.85.66,126.1,57.53,125.15,126.54Z"/>
      </g>
    </g>
  </g>
</svg>