<svg xmlns="http://www.w3.org/2000/svg" width="52" height="52" viewBox="0 0 52 52">
  <g id="그룹_36" data-name="그룹 36" transform="translate(-1785 -92.5)">
    <path id="패스_26" data-name="패스 26" d="M26,1.5a24.507,24.507,0,0,0-9.536,47.075A24.507,24.507,0,0,0,35.536,3.425,24.345,24.345,0,0,0,26,1.5M26,0A26,26,0,1,1,0,26,26,26,0,0,1,26,0Z" transform="translate(1785 92.5)"/>
    <path id="패스_37" data-name="패스 37" d="M1.445,0h8.945V-1.855h-6.8V-6.172h6.25V-8.008H3.594v-4.277h6.719v-1.855H1.445Zm22.91-14.141H22.246V-3.789h-.137L14.941-14.141H12.949V0H15.1V-10.332h.117L22.383,0h1.973Z" transform="translate(1798 125.5)"/>
  </g>
</svg>
