<?xml version="1.0" encoding="UTF-8"?>
<svg id="_레이어_2" data-name="레이어_2" xmlns="http://www.w3.org/2000/svg" viewBox="0 0 677.75 830.64">
  <defs>
    <style>
      .cls-1 {
        fill: #fff;
      }
    </style>
  </defs>
  <g id="_레이어_1-2" data-name="레이어_1">
    <g id="LMeVcT">
      <g>
        <path class="cls-1" d="M471.85,281.64c66.33,0,126.24.52,186.13-.36,15.34-.22,20.54,3.61,19.68,19.48-1.38,25.64-1.17,51.44-.06,77.1.61,14.18-4.33,17.65-17.86,17.49-57.35-.67-114.71-.29-172.06-.24-3.26,0-6.52.47-9.82.73-2.15,7.29,4.29,9.28,7.51,12.43,40.47,39.69,81.01,79.33,122.07,118.42,8.01,7.62,11.07,11.73,1.12,20.82-20.91,19.1-40.82,39.36-60.1,60.12-8.69,9.36-13.4,7.88-21.64-.51-57.74-58.79-116.28-116.79-173.87-175.72-10.54-10.78-16.23-11.91-27.45-.37-57.45,59.07-116.1,116.96-173.8,175.79-8.85,9.02-13.81,10.1-22.85.27-18.73-20.36-38.41-39.91-58.66-58.77-9.11-8.49-8.27-12.9.46-21.16,39.72-37.62,78.56-76.16,117.95-114.13,4.59-4.42,10.6-7.36,15.96-10.99-1.14-1.9-2.27-3.8-3.41-5.7-6.85-.35-13.7-.99-20.55-1-53.4-.08-106.81-.77-160.19.37-16.98.36-21.15-4.99-20.32-21.06,1.34-25.64,1.12-51.43.05-77.1-.57-13.53,4.43-16.3,16.86-16.17,55.37.59,110.75.25,166.13.25,5.7,0,11.39,0,17.09,0,1.33-1.81,2.66-3.61,3.98-5.42-5.51-4.13-11.48-7.77-16.45-12.47-39.28-37.13-78.22-74.61-117.65-111.58-7.57-7.09-9.93-11.56-.92-19.84,24.73-22.7,48.52-46.42,70.03-67.17,45.36,42.48,91.94,86.1,139.07,130.24,2.81-3.59.82-10.94.84-17.58.19-53.4.55-106.8-.19-160.19-.19-14.01,4.27-18.04,17.93-17.58,28.32.95,56.71.99,85.02-.01,14.02-.5,17.78,4.19,17.59,17.86-.72,53.39-.37,106.79-.19,160.19.02,6.27-1.85,12.93.41,16.6,32.94-31.34,66.05-62.97,99.3-94.44,13.2-12.5,23.99-35.99,39.15-35.39,13.18.53,25.55,22.25,38.21,34.68,6.58,6.47,13.02,13.08,19.51,19.65q22.6,22.87-1.41,45.7c-39.48,37.58-78.94,75.17-122.62,116.76Z"/>
        <path class="cls-1" d="M399.19,693.88c0,40.22-.35,80.45.22,120.66.17,11.79-3.18,16.38-15.55,16.09-30.31-.72-60.66-.53-90.99-.08-10.27.15-13.81-3.52-13.77-13.78.29-81.76.26-163.53.05-245.29-.02-9.14,2.79-12.81,12.47-12.66,31.64.49,63.31.6,94.94-.04,11.39-.23,12.81,5.16,12.74,14.44-.29,40.22-.12,80.44-.12,120.67Z"/>
      </g>
    </g>
  </g>
</svg>