<svg xmlns="http://www.w3.org/2000/svg" xmlns:xlink="http://www.w3.org/1999/xlink" width="317.362" height="433.473" viewBox="0 0 317.362 433.473">
  <defs>
    <clipPath id="clip-path">
      <rect id="사각형_5" data-name="사각형 5" width="317.362" height="433.473"/>
    </clipPath>
  </defs>
  <g id="그룹_13" data-name="그룹 13" transform="translate(-229 -1189)">
    <g id="그룹_10" data-name="그룹 10" transform="translate(229 1189)">
      <g id="그룹_4" data-name="그룹 4" clip-path="url(#clip-path)">
        <path id="패스_2" data-name="패스 2" d="M317.33,226.977c-2.224,52.3-18.193,89.118-41.519,123.238-21.278,31.126-47.512,57.512-76.982,80.859-4.5,3.57-6.961,3.211-10.128-1.464-8.566-12.648-7.977-9.684,2.383-18.234,33.66-27.777,62.83-59.377,83.631-98.128a20.349,20.349,0,0,0,1.19-2.125c.637-1.635,2.445-3.523,1.1-4.989-1.668-1.823-3.278.582-4.734,1.313-34.405,17.284-74.3,10.033-100.228-18.4a82.156,82.156,0,0,1-18.706-34.472c-.409-1.518-.006-3.731-1.813-4.224-2.162-.588-2.932,1.675-4.086,3.031-28.271,33.224-75.323,40-111.072,16.009-48.156-32.317-48.569-104.5-.783-137.411a35.851,35.851,0,0,1,3.563-2.339c4.406-2.316,3.672-4.3.036-6.89A64.127,64.127,0,0,1,16.454,94.768C1.568,58.833,18.09,19.778,55.143,5.349c32.6-12.695,71.738-2.857,91.471,30.183,17.095,28.623,9.074,66.111-18.971,86.867-4.708,3.484-3.8,5.06.335,7.723,17.811,11.479,29.532,27.523,35.4,47.9.538,1.87.509,4.707,2.628,5.166s3.176-2.151,4.423-3.655c29.014-34.972,81.7-39.257,115.913-10.826,21.28,17.684,31.682,40.674,30.99,58.266M146.266,201.036c.281-34.16-27.238-62.563-59.927-63.885a64.087,64.087,0,0,0-66.646,63.037c-.6,33.688,28.65,63.192,62.7,63.519a63.5,63.5,0,0,0,63.869-62.67M296.943,233.09a63.071,63.071,0,0,0-62.677-62.912c-33.687-.246-63.281,26.608-63.711,63.453-.394,33.7,28.875,62.964,61.785,62.936,36.61-.032,64.684-27.617,64.6-63.478M31.1,68.057c.266,3.824-.055,7.632,1.085,11.455,9.609,32.222,47.25,47.457,76.792,30.979,19.851-11.073,30.139-31.749,25.482-51.209C127.9,31.9,99.217,14.883,71.5,21.149,48.119,26.435,30.112,47.31,31.1,68.057" transform="translate(0 0)"/>
        <path id="패스_3" data-name="패스 3" d="M120.607,254.442c.04,10.84-7.606,18.522-18.369,18.456A18.315,18.315,0,0,1,84.02,254.633a18.582,18.582,0,0,1,18.007-18.577,18.047,18.047,0,0,1,18.58,18.386" transform="translate(-19.298 -54.218)"/>
        <path id="패스_4" data-name="패스 4" d="M308.083,314.768l-6.134-3.416-3.961,5.8-3.844-5.875-6.2,3.292-.674-6.988-7.021.034,2.651-6.5-6.232-3.233,5.369-4.524L278.02,287.6l6.857-1.511-.88-6.966,6.773,1.849,2.458-6.577,5.138,4.784,5.233-4.681,2.326,6.625,6.809-1.713-1.018,6.947L318.542,288l-4.13,5.678,5.278,4.631-6.3,3.107,2.521,6.553-7.019-.174Z" transform="translate(-63.546 -63.023)"/>
      </g>
    </g>
    <text id="Artist_club" data-name="Artist club" transform="translate(336.832 1546.455)" fill="red" font-size="38" font-family="Pretendard-Bold, Pretendard" font-weight="700"><tspan x="-90.603" y="0">artist club</tspan></text>
  </g>
</svg>
