<svg xmlns="http://www.w3.org/2000/svg" xmlns:xlink="http://www.w3.org/1999/xlink" width="396" height="393.298" viewBox="0 0 396 393.298">
  <defs>
    <clipPath id="clip-path">
      <rect id="사각형_75" data-name="사각형 75" width="396" height="393.298" fill="#fff" stroke="#000" stroke-width="1"/>
    </clipPath>
  </defs>
  <g id="sticker-3" clip-path="url(#clip-path)">
    <path id="패스_41" data-name="패스 41" d="M151.8,393.415a64.2,64.2,0,0,0-84.5-43.932,64.28,64.28,0,0,0-54.4-78.168,64.35,64.35,0,0,0,15.015-49.873A64.35,64.35,0,0,0,1.051,176.817a64.347,64.347,0,0,0,36.473-37.182,64.352,64.352,0,0,0-3.046-52A65.472,65.472,0,0,0,41.351,88,64.314,64.314,0,0,0,105.519,24.21a63.9,63.9,0,0,0,35.609,10.835A64.186,64.186,0,0,0,197.9,1.061a64.258,64.258,0,0,0,56.535,33.546,63.86,63.86,0,0,0,36.022-11.113A63.819,63.819,0,0,0,309.631,68.31a63.815,63.815,0,0,0,44.985,18.481,65.426,65.426,0,0,0,7.37-.42A64.279,64.279,0,0,0,396.1,175.288a64.278,64.278,0,0,0-11.113,94.586,64.279,64.279,0,0,0-53.8,78.588A64.094,64.094,0,0,0,309.32,344.6a64.739,64.739,0,0,0-39.174,13.339,63.531,63.531,0,0,0-23.11,35.106,64.277,64.277,0,0,0-95.235.369" transform="translate(-0.576 -0.582)" fill="#fff"/>
    <path id="패스_41_-_윤곽선" data-name="패스 41 - 윤곽선" d="M151.552,394.438l-.236-.9a63.7,63.7,0,0,0-83.842-43.591l-.869.322.208-.9a63.9,63.9,0,0,0-9.805-50.741,63.9,63.9,0,0,0-44.175-26.82l-.919-.119.6-.7a63.9,63.9,0,0,0,14.9-49.485A63.9,63.9,0,0,0,.764,177.226l-.758-.532.861-.342a63.893,63.893,0,0,0,36.189-36.893,63.9,63.9,0,0,0-3.022-51.591l-.424-.824.922.1a65.011,65.011,0,0,0,6.821.362A63,63,0,0,0,66,82.528,63.736,63.736,0,0,0,76.775,76.69a64.289,64.289,0,0,0,17.193-17.1,63.944,63.944,0,0,0,5.9-10.752,63.286,63.286,0,0,0,5.147-24.631l.007-.927.771.515a63.425,63.425,0,0,0,35.331,10.751A63.98,63.98,0,0,0,174,25.49,63.778,63.778,0,0,0,197.458.825l.437-.817.443.814a63.8,63.8,0,0,0,23.447,24.346,63.992,63.992,0,0,0,32.648,8.939,63.387,63.387,0,0,0,35.741-11.026l.767-.521.014.927a63.353,63.353,0,0,0,19.026,44.466,63.318,63.318,0,0,0,44.634,18.338,64.965,64.965,0,0,0,7.313-.417l.921-.1-.418.827a63.779,63.779,0,0,0,33.851,88.225l.864.335-.754.538a63.778,63.778,0,0,0-11.027,93.85l.609.7-.918.126a63.779,63.779,0,0,0-53.378,77.976l.215.9-.871-.315a63.764,63.764,0,0,0-83.5,44.238l-.228.9-.625-.684a63.778,63.778,0,0,0-94.495.366ZM89.635,344.952a64.75,64.75,0,0,1,62.41,47.452,64.777,64.777,0,0,1,94.737-.367,64.019,64.019,0,0,1,23.059-34.494A65.242,65.242,0,0,1,309.32,344.1a64.537,64.537,0,0,1,21.18,3.584,64.779,64.779,0,0,1,53.515-78.177,64.778,64.778,0,0,1,11.055-94.092,64.779,64.779,0,0,1-33.938-88.452c-2.172.217-4.36.326-6.517.326a64.312,64.312,0,0,1-45.335-18.625,64.331,64.331,0,0,1-19.3-44.249,64.361,64.361,0,0,1-35.543,10.69,64.992,64.992,0,0,1-33.159-9.079A64.794,64.794,0,0,1,197.9,2.1a64.767,64.767,0,0,1-23.394,24.247,64.98,64.98,0,0,1-33.381,9.2,64.4,64.4,0,0,1-35.122-10.416,64.243,64.243,0,0,1-5.215,24.1,64.949,64.949,0,0,1-6,10.92,65.291,65.291,0,0,1-17.46,17.367,64.74,64.74,0,0,1-10.948,5.93A63.99,63.99,0,0,1,41.351,88.5c-1.993,0-4.012-.093-6.016-.277a64.9,64.9,0,0,1,2.657,51.584A64.9,64.9,0,0,1,2.083,176.938a64.9,64.9,0,0,1,26.325,44.441,64.9,64.9,0,0,1-14.541,49.563,64.905,64.905,0,0,1,43.962,27.117A64.9,64.9,0,0,1,67.987,348.7,64.508,64.508,0,0,1,89.635,344.952Z" transform="translate(-0.576 -0.582)"/>
    <path id="패스_42" data-name="패스 42" d="M197.325.951a64.486,64.486,0,0,0,56.533,33.3,64.075,64.075,0,0,0,35.8-10.919A64.036,64.036,0,0,0,308.9,67.888,64.039,64.039,0,0,0,354.04,86.435a65.742,65.742,0,0,0,6.982-.375,64.435,64.435,0,0,0,34.035,88.705,64.434,64.434,0,0,0-11.087,94.361,64.434,64.434,0,0,0-53.669,78.4,64.3,64.3,0,0,0-21.557-3.733,64.96,64.96,0,0,0-39.311,13.385A63.74,63.74,0,0,0,246.344,392a64.431,64.431,0,0,0-95.009.368,63.758,63.758,0,0,0-23.165-34.5,65.005,65.005,0,0,0-39.111-13.23,64.232,64.232,0,0,0-22.022,3.9,63.93,63.93,0,0,0,.34-26.637,64.235,64.235,0,0,0-10.349-24.274A64.236,64.236,0,0,0,37.859,279.5a63.935,63.935,0,0,0-25.1-8.934,63.93,63.93,0,0,0,12.68-23.428,64.23,64.23,0,0,0,2.118-26.3,64.232,64.232,0,0,0-8.544-24.967A63.934,63.934,0,0,0,.945,176.29a63.936,63.936,0,0,0,22.115-14.852,64.243,64.243,0,0,0,14.1-22.307A64.241,64.241,0,0,0,41.2,113.054a63.933,63.933,0,0,0-6.9-25.73c2.158.215,4.335.323,6.483.323a64.54,64.54,0,0,0,64.389-63.6,64.108,64.108,0,0,0,35.387,10.643A64.413,64.413,0,0,0,197.325.951m0-.951h0a64,64,0,0,1-56.769,34.238,63.675,63.675,0,0,1-35.833-11.032A64.062,64.062,0,0,1,40.775,87.2a65.1,65.1,0,0,1-7.268-.409A64.053,64.053,0,0,1,0,176.179H0A64.053,64.053,0,0,1,11.874,270.9,64.053,64.053,0,0,1,66.409,349.26a63.972,63.972,0,0,1,84.7,44.037h0a64.053,64.053,0,0,1,95.465-.369,63.972,63.972,0,0,1,84.358-44.692A64.053,64.053,0,0,1,384.86,269.46h0A64.053,64.053,0,0,1,396,174.646h0a64.053,64.053,0,0,1-34.2-89.13,64.941,64.941,0,0,1-7.763.467,64.066,64.066,0,0,1-63.939-63.5h0A63.654,63.654,0,0,1,253.858,33.8,64,64,0,0,1,197.321,0ZM330.934,348.236Zm-84.358,44.692Z" fill="#fff"/>
    <path id="패스_42_-_윤곽선" data-name="패스 42 - 윤곽선" d="M197.317-1.066l.445.83A63.753,63.753,0,0,0,208.233,14.1a63.071,63.071,0,0,0,13.458,10.517A63.948,63.948,0,0,0,253.858,33.3a63.152,63.152,0,0,0,35.959-11.223l.259.376.066-.044,0,.079h.457a63.14,63.14,0,0,0,11.158,35.43A63.92,63.92,0,0,0,329.69,80.6a62.776,62.776,0,0,0,24.35,4.883,64.723,64.723,0,0,0,7.7-.464l.935-.112-.43.837a64.11,64.11,0,0,0-4.964,12.924,63.1,63.1,0,0,0-1.242,26.314A63.8,63.8,0,0,0,373.5,159.416a63.062,63.062,0,0,0,10.339,8.476,64.1,64.1,0,0,0,12.334,6.286l.322.123v.6l-.212.15a64.106,64.106,0,0,0-10.4,9.136,63.094,63.094,0,0,0-13.329,22.722,63.8,63.8,0,0,0-.539,38.606,63.067,63.067,0,0,0,5.216,12.31,64.11,64.11,0,0,0,8,11.3l-.342.3.052.06-.079.011.059.453a64.106,64.106,0,0,0-13.456,3.256,63.093,63.093,0,0,0-22.362,13.926,63.8,63.8,0,0,0-18.418,33.934,63.067,63.067,0,0,0-1.1,13.324,64.1,64.1,0,0,0,1.833,13.722l.224.914-.883-.326a63.47,63.47,0,0,0-83.7,44.343l-.226.914-.63-.7a64.093,64.093,0,0,0-10.27-9.186A63.106,63.106,0,0,0,211.9,373.584a64.107,64.107,0,0,0-12.889-1.312H199a63.676,63.676,0,0,0-25.565,5.342,63.052,63.052,0,0,0-11.652,6.674,64.122,64.122,0,0,0-10.3,9.342l-.874.984V393.36a63.472,63.472,0,0,0-84.025-43.633l-.881.333.217-.916a64.107,64.107,0,0,0,1.727-13.736,63.063,63.063,0,0,0-1.206-13.315,63.494,63.494,0,0,0-3.885-12.532,64.021,64.021,0,0,0-14.8-21.258,63.5,63.5,0,0,0-10.4-8,63.064,63.064,0,0,0-12.067-5.756,64.106,64.106,0,0,0-13.48-3.152l-.934-.114.618-.71a64.107,64.107,0,0,0,7.913-11.36,63.069,63.069,0,0,0,5.12-12.35,63.494,63.494,0,0,0,2.384-12.9,64.093,64.093,0,0,0-.3-13.014,64.092,64.092,0,0,0-2.924-12.685A63.492,63.492,0,0,0,18.2,196.35a63.063,63.063,0,0,0-8.01-10.7A64.1,64.1,0,0,0-.284,176.59l-.774-.536.877-.342A64.106,64.106,0,0,0,12.1,169.332a63.06,63.06,0,0,0,10.273-8.556,63.493,63.493,0,0,0,8.107-10.316A64.088,64.088,0,0,0,36.268,138.8a64.09,64.09,0,0,0,3.306-12.591,63.491,63.491,0,0,0,.672-13.1,63.065,63.065,0,0,0-2.118-13.2,64.1,64.1,0,0,0-5.064-12.885l-.436-.834.935.105a64.837,64.837,0,0,0,7.212.406A62.786,62.786,0,0,0,65.257,81.76a63.757,63.757,0,0,0,10.764-5.807A64,64,0,0,0,93.237,58.87,63.144,63.144,0,0,0,104.218,23.2v-.941l.779.528a63.187,63.187,0,0,0,35.553,10.946,63.931,63.931,0,0,0,32.379-8.809,63.053,63.053,0,0,0,13.5-10.655A63.757,63.757,0,0,0,196.878-.233Zm56.541,35.816a65.231,65.231,0,0,1-33.1-9.008A65.032,65.032,0,0,1,197.329,1.979a65,65,0,0,1-23.453,24.083,65.222,65.222,0,0,1-33.324,9.127,64.632,64.632,0,0,1-34.906-10.235A64.451,64.451,0,0,1,100.3,49.011,65.184,65.184,0,0,1,94.267,59.9a65.512,65.512,0,0,1-17.5,17.307,64.953,64.953,0,0,1-10.955,5.907,64.219,64.219,0,0,1-25.032,5.034c-1.867,0-3.758-.082-5.634-.243A64.391,64.391,0,0,1,41.7,113.027a64.738,64.738,0,0,1-4.068,26.28A64.74,64.74,0,0,1,23.42,161.787,64.4,64.4,0,0,1,1.967,176.41a64.4,64.4,0,0,1,17.479,19.2,64.727,64.727,0,0,1,8.611,25.16,64.727,64.727,0,0,1-2.134,26.507,64.394,64.394,0,0,1-12.2,22.918,64.4,64.4,0,0,1,24.4,8.876,64.733,64.733,0,0,1,19.317,18.277A64.734,64.734,0,0,1,67.867,321.81a64.389,64.389,0,0,1-.151,25.963,64.694,64.694,0,0,1,21.339-3.628,65.511,65.511,0,0,1,39.418,13.332,64.264,64.264,0,0,1,23.1,33.9,64.937,64.937,0,0,1,94.517-.366,64.245,64.245,0,0,1,23.033-34.225,65.463,65.463,0,0,1,39.612-13.488,64.772,64.772,0,0,1,20.876,3.465,64.934,64.934,0,0,1,53.391-77.995,64.933,64.933,0,0,1,11.029-93.872,64.933,64.933,0,0,1-33.858-88.246c-2.048.191-4.109.288-6.138.288a64.535,64.535,0,0,1-45.493-18.69,64.522,64.522,0,0,1-19.359-44A64.6,64.6,0,0,1,253.858,34.751Z"/>
  </g>
</svg>
