<svg id="sticker-4" xmlns="http://www.w3.org/2000/svg" xmlns:xlink="http://www.w3.org/1999/xlink" width="400.868" height="393.298" viewBox="0 0 400.868 393.298">
  <defs>
    <clipPath id="clip-path">
      <rect id="사각형_82" data-name="사각형 82" width="400.868" height="393.298" fill="none" stroke="#000" stroke-width="1"/>
    </clipPath>
  </defs>
  <g id="그룹_43" data-name="그룹 43" clip-path="url(#clip-path)">
    <path id="패스_45" data-name="패스 45" d="M234.187,393.087a48,48,0,0,1-33.362-13.495l-.246-.237-.246.237a48.369,48.369,0,0,1-78.846-18l-.119-.319-.325.106a48.108,48.108,0,0,1-50.871-13.456,47.737,47.737,0,0,1-12.357-36.967l.031-.34-.338-.045A48.392,48.392,0,0,1,22.419,237.71l.176-.292-.285-.188a48.391,48.391,0,0,1,0-80.872l.285-.188-.176-.292A48.391,48.391,0,0,1,57.508,83.013l.338-.046-.031-.34A47.735,47.735,0,0,1,70.173,45.662,48.106,48.106,0,0,1,121.043,32.2l.325.106.119-.319a48.368,48.368,0,0,1,78.845-18l.246.236.247-.236a48.368,48.368,0,0,1,78.845,18l.119.319.324-.106a48.11,48.11,0,0,1,50.872,13.456,47.734,47.734,0,0,1,12.356,36.967l-.031.34.338.046a48.391,48.391,0,0,1,35.089,72.863l-.176.293.285.187a48.392,48.392,0,0,1,0,80.873l-.285.188.176.292a48.392,48.392,0,0,1-35.089,72.865l-.338.045.031.34a47.73,47.73,0,0,1-12.358,36.966,48.105,48.105,0,0,1-50.871,13.458l-.324-.106-.119.319a48.1,48.1,0,0,1-45.477,31.491Z" transform="translate(-0.144 -0.144)" fill="#fff"/>
    <path id="패스_45_-_윤곽선" data-name="패스 45 - 윤곽선" d="M234.193,393.587h-.006a48.5,48.5,0,0,1-33.608-13.538A48.869,48.869,0,0,1,121.067,361.9,48.606,48.606,0,0,1,69.8,348.263a48.223,48.223,0,0,1-12.5-37.212,48.892,48.892,0,0,1-35.386-73.48,48.891,48.891,0,0,1,0-81.555A48.891,48.891,0,0,1,57.3,82.536,48.224,48.224,0,0,1,69.8,45.325a48.6,48.6,0,0,1,51.264-13.638,48.868,48.868,0,0,1,79.511-18.147A48.868,48.868,0,0,1,280.09,31.687a48.607,48.607,0,0,1,51.265,13.637,48.222,48.222,0,0,1,12.5,37.212,48.891,48.891,0,0,1,35.386,73.479,48.891,48.891,0,0,1,0,81.556,48.892,48.892,0,0,1-35.386,73.48,48.216,48.216,0,0,1-12.5,37.21A48.6,48.6,0,0,1,280.09,361.9,48.6,48.6,0,0,1,234.193,393.587Zm-33.614-14.926.593.57a47.5,47.5,0,0,0,33.015,13.355h.006A47.606,47.606,0,0,0,279.2,361.421l.288-.769.78.255a47.605,47.605,0,0,0,50.346-13.32A47.235,47.235,0,0,0,342.845,311l-.075-.818.815-.108a47.892,47.892,0,0,0,34.726-72.112l-.423-.7.686-.452a47.892,47.892,0,0,0,0-80.038l-.686-.45.423-.7a47.891,47.891,0,0,0-34.727-72.11l-.814-.109.075-.817A47.239,47.239,0,0,0,330.617,46,47.609,47.609,0,0,0,280.269,32.68l-.78.255-.287-.768a47.868,47.868,0,0,0-78.031-17.81l-.594.568-.592-.568a47.868,47.868,0,0,0-78.031,17.81l-.286.769-.781-.255A47.606,47.606,0,0,0,70.542,46,47.241,47.241,0,0,0,58.313,82.582l.075.817-.814.109A47.891,47.891,0,0,0,22.847,155.62l.423.7-.686.452a47.891,47.891,0,0,0,0,80.037l.686.452-.423.7a47.892,47.892,0,0,0,34.727,72.111l.814.108-.075.818a47.242,47.242,0,0,0,12.229,36.584,47.608,47.608,0,0,0,50.347,13.318l.782-.255.286.769a47.869,47.869,0,0,0,78.031,17.81Z" transform="translate(-0.144 -0.144)"/>
    <path id="패스_46" data-name="패스 46" d="M234.048.711a48.37,48.37,0,0,1,26.91,8.123,47.559,47.559,0,0,1,18.234,23.137l.239.64.648-.213a47.755,47.755,0,0,1,50.5,13.358,47.382,47.382,0,0,1,12.266,36.695l-.063.68.676.09a48.037,48.037,0,0,1,34.832,72.328l-.351.585.57.375a48.037,48.037,0,0,1,0,80.279l-.57.375.351.585a48.037,48.037,0,0,1-34.832,72.328l-.676.09.062.68a47.381,47.381,0,0,1-12.266,36.694,47.753,47.753,0,0,1-50.5,13.359l-.648-.213-.239.64a47.555,47.555,0,0,1-18.234,23.135,48.367,48.367,0,0,1-26.91,8.124,47.655,47.655,0,0,1-33.122-13.4l-.492-.473-.493.473a47.653,47.653,0,0,1-33.122,13.4,48.369,48.369,0,0,1-26.911-8.124,47.556,47.556,0,0,1-18.233-23.137l-.239-.639-.648.213a47.755,47.755,0,0,1-50.5-13.358,47.382,47.382,0,0,1-12.265-36.695l.062-.68-.676-.09a48.037,48.037,0,0,1-34.832-72.328l.351-.585-.57-.375a48.036,48.036,0,0,1,0-80.279l.57-.375-.351-.585A48.037,48.037,0,0,1,57.41,83.221l.676-.09-.062-.68A47.383,47.383,0,0,1,70.291,45.757a47.752,47.752,0,0,1,50.5-13.359l.648.213.239-.64A47.559,47.559,0,0,1,139.91,8.835,48.367,48.367,0,0,1,166.82.711a47.654,47.654,0,0,1,33.122,13.4l.493.473.492-.473A47.655,47.655,0,0,1,234.048.711m0-.711a48.2,48.2,0,0,0-33.614,13.594A48.724,48.724,0,0,0,121.01,31.722a48.984,48.984,0,0,0-15.265-2.461c-27.515,0-51.143,23.72-48.429,53.255-34.746,4.64-53.384,43.34-35.347,73.4-29.292,19.256-29.292,62.21,0,81.467-18.036,30.059.6,68.759,35.347,73.4-2.714,29.537,20.911,53.255,48.429,53.255a49,49,0,0,0,15.265-2.461A48.724,48.724,0,0,0,200.435,379.7a48.723,48.723,0,0,0,79.424-18.128,48.984,48.984,0,0,0,15.265,2.461c27.516,0,51.143-23.72,48.429-53.255,34.746-4.64,53.383-43.34,35.347-73.4,29.292-19.256,29.292-62.21,0-81.467,18.036-30.059-.6-68.759-35.347-73.4,2.714-29.537-20.911-53.255-48.429-53.255a49.008,49.008,0,0,0-15.265,2.461A48.624,48.624,0,0,0,234.048,0"/>
    <path id="패스_46_-_윤곽선" data-name="패스 46 - 윤곽선" d="M234.048,393.8a48.681,48.681,0,0,1-33.614-13.4,48.689,48.689,0,0,1-33.614,13.4,49.857,49.857,0,0,1-27.582-8.327A48.733,48.733,0,0,1,120.711,362.2a49.492,49.492,0,0,1-14.965,2.339,48.46,48.46,0,0,1-10.357-1.123,49.1,49.1,0,0,1-9.7-3.219A49.813,49.813,0,0,1,63.514,340.46a48.639,48.639,0,0,1-6.738-29.248,49.865,49.865,0,0,1-11.885-3.221A48.42,48.42,0,0,1,34.3,301.983a49.7,49.7,0,0,1-19.8-41.119A48.417,48.417,0,0,1,16.4,248.836a49.862,49.862,0,0,1,4.892-11.3,49.862,49.862,0,0,1-9.311-8.059,48.417,48.417,0,0,1-6.937-10.009,49.7,49.7,0,0,1,0-45.638,48.418,48.418,0,0,1,6.937-10.009,49.863,49.863,0,0,1,9.311-8.059,49.862,49.862,0,0,1-4.892-11.3A48.417,48.417,0,0,1,14.5,132.434,49.7,49.7,0,0,1,34.3,91.315a48.421,48.421,0,0,1,10.593-6.008,49.864,49.864,0,0,1,11.885-3.221,48.636,48.636,0,0,1,6.738-29.247,49.516,49.516,0,0,1,5.881-7.9A49.959,49.959,0,0,1,85.693,33.1a49.093,49.093,0,0,1,9.7-3.219,48.448,48.448,0,0,1,10.356-1.123A49.492,49.492,0,0,1,120.71,31.1,48.732,48.732,0,0,1,139.239,7.827,49.858,49.858,0,0,1,166.82-.5a48.68,48.68,0,0,1,33.614,13.4A48.687,48.687,0,0,1,234.048-.5,49.856,49.856,0,0,1,261.63,7.827,48.733,48.733,0,0,1,280.158,31.1a49.5,49.5,0,0,1,14.965-2.339,48.459,48.459,0,0,1,10.357,1.123,49.1,49.1,0,0,1,9.7,3.219,49.813,49.813,0,0,1,22.178,19.735,48.639,48.639,0,0,1,6.738,29.248,49.864,49.864,0,0,1,11.885,3.221,48.421,48.421,0,0,1,10.593,6.008,49.7,49.7,0,0,1,19.8,41.119,48.421,48.421,0,0,1-1.907,12.028,49.865,49.865,0,0,1-4.892,11.3,49.863,49.863,0,0,1,9.311,8.059,48.42,48.42,0,0,1,6.937,10.009,49.7,49.7,0,0,1,0,45.638,48.417,48.417,0,0,1-6.937,10.009,49.86,49.86,0,0,1-9.311,8.059,49.865,49.865,0,0,1,4.892,11.3,48.421,48.421,0,0,1,1.907,12.028,49.7,49.7,0,0,1-19.8,41.119,48.42,48.42,0,0,1-10.593,6.008,49.865,49.865,0,0,1-11.885,3.221,48.636,48.636,0,0,1-6.738,29.247,49.516,49.516,0,0,1-5.881,7.9,49.957,49.957,0,0,1-16.3,11.837,49.1,49.1,0,0,1-9.7,3.219,48.451,48.451,0,0,1-10.356,1.123,49.492,49.492,0,0,1-14.965-2.339,48.732,48.732,0,0,1-18.528,23.274,49.858,49.858,0,0,1-27.581,8.327Zm-33.613-15.773.838.806a47.156,47.156,0,0,0,32.775,13.257,47.868,47.868,0,0,0,26.633-8.04,47.057,47.057,0,0,0,18.043-22.894l.407-1.09,1.1.362A47.253,47.253,0,0,0,330.208,347.2a46.886,46.886,0,0,0,12.138-36.311l-.105-1.158,1.151-.154a47.537,47.537,0,0,0,34.469-71.576l-.6-1,.971-.638a47.537,47.537,0,0,0,0-79.444l-.971-.638.6-1a47.537,47.537,0,0,0-34.469-71.576l-1.152-.154.107-1.158a46.889,46.889,0,0,0-12.138-36.312,47.255,47.255,0,0,0-49.974-13.22l-1.1.362-.407-1.09a47.063,47.063,0,0,0-18.043-22.9,47.871,47.871,0,0,0-26.633-8.039,47.156,47.156,0,0,0-32.775,13.257l-.838.805-.839-.805A47.156,47.156,0,0,0,166.82,1.211a47.868,47.868,0,0,0-26.633,8.04,47.06,47.06,0,0,0-18.043,22.894l-.407,1.09-1.1-.362A47.253,47.253,0,0,0,70.66,46.094,46.889,46.889,0,0,0,58.522,82.405l.105,1.158-1.151.154a47.537,47.537,0,0,0-34.469,71.576l.6,1-.971.638a47.536,47.536,0,0,0,0,79.443l.971.639-.6,1a47.537,47.537,0,0,0,34.469,71.576l1.151.154-.105,1.157A46.888,46.888,0,0,0,70.659,347.2a47.255,47.255,0,0,0,49.974,13.22l1.1-.362.407,1.089a47.059,47.059,0,0,0,18.042,22.9,47.871,47.871,0,0,0,26.633,8.04A47.156,47.156,0,0,0,199.6,378.83Z"/>
  </g>
</svg>
