<svg xmlns="http://www.w3.org/2000/svg" width="404.494" height="394.353" viewBox="0 0 404.494 394.353">
  <g id="sticker-2" transform="translate(0.541 0.555)">
    <path id="패스_47" data-name="패스 47" d="M40.424,78.321.54,253.057,112.289,393.186H291.52L403.269,253.057,363.386,78.321,201.9.555Z" transform="translate(-0.199 -0.204)" fill="#fff"/>
    <path id="패스_47_-_윤곽선" data-name="패스 47 - 윤곽선" d="M201.9,0l.217.1,161.7,77.87.054.235L403.81,253.181l-.15.188-111.9,140.317H112.048l-.15-.188L0,253.181l.054-.235L39.99,77.975l.217-.1ZM362.952,78.667,201.9,1.11,40.858,78.667,1.082,252.934,112.53,392.686h178.75L402.728,252.934Z" transform="translate(-0.199 -0.204)"/>
    <path id="패스_48" data-name="패스 48" d="M.684,252.775,40.5,78.335,201.706.7,362.913,78.335l39.815,174.44L291.169,392.665H112.243ZM201.706,0,39.95,77.9,0,252.932,111.938,393.3H291.474L403.412,252.932,363.462,77.9Z"/>
    <path id="패스_48_-_윤곽선" data-name="패스 48 - 윤곽선" d="M291.714,393.8H111.7l-.15-.188L-.541,253.055l.054-.235,40-175.269.217-.1,161.973-78,.217.1,161.973,78,.054.235,40,175.269-.15.188Zm-179.231-1.632H290.928L402.186,252.652,362.479,78.681,201.706,1.258,40.932,78.681,1.225,252.652Z"/>
  </g>
</svg>
