<svg xmlns="http://www.w3.org/2000/svg" width="396" height="396" viewBox="0 0 396 396">
  <g transform="translate(-78 -3063)">
    <rect id="sticker-1" width="396" height="396" rx="198" transform="translate(78 3063)" fill="#fff"/>
    <path id="sticker-1_-_윤곽선" data-name="sticker-1 - 윤곽선" d="M198,1a198.461,198.461,0,0,0-39.7,4,195.915,195.915,0,0,0-70.44,29.642,197.578,197.578,0,0,0-71.375,86.675A196,196,0,0,0,5,158.3,198.931,198.931,0,0,0,5,237.7a195.915,195.915,0,0,0,29.642,70.44,197.578,197.578,0,0,0,86.675,71.375A196,196,0,0,0,158.3,391a198.931,198.931,0,0,0,79.407,0,195.915,195.915,0,0,0,70.44-29.642,197.578,197.578,0,0,0,71.375-86.675A196,196,0,0,0,391,237.7a198.931,198.931,0,0,0,0-79.407,195.915,195.915,0,0,0-29.642-70.44,197.578,197.578,0,0,0-86.675-71.375A196,196,0,0,0,237.7,5,198.461,198.461,0,0,0,198,1m0-1C307.352,0,396,88.648,396,198S307.352,396,198,396,0,307.352,0,198,88.648,0,198,0Z" transform="translate(78 3063)"/>
  </g>
</svg>
