<svg xmlns="http://www.w3.org/2000/svg" width="47.012" height="38.934" viewBox="0 0 47.012 38.934">
  <path id="패스_23" data-name="패스 23" d="M49.62,12.734H7.391A2.393,2.393,0,0,0,5,15.123v5.322a5.051,5.051,0,0,0,5.046,5.046H10.8a5.043,5.043,0,0,0,4.142-2.171,5.043,5.043,0,0,0,4.142,2.171h.757a5.043,5.043,0,0,0,4.142-2.171,5.043,5.043,0,0,0,4.142,2.171h.757a5.043,5.043,0,0,0,4.142-2.171,5.042,5.042,0,0,0,4.14,2.171h.757a5.043,5.043,0,0,0,4.142-2.171,5.042,5.042,0,0,0,4.14,2.171h.545v23.29a1.083,1.083,0,0,1-1.088,1.079H35.637V36.552a2.389,2.389,0,0,0-2.387-2.385H23.76a2.389,2.389,0,0,0-2.387,2.385V49.86H11.346a1.084,1.084,0,0,1-1.088-1.079v-19.1a.9.9,0,1,0-1.808,0v19.1a2.894,2.894,0,0,0,2.893,2.887H45.662a2.894,2.894,0,0,0,2.893-2.887l0-23.553a5.051,5.051,0,0,0,3.452-4.783V15.123a2.392,2.392,0,0,0-2.391-2.389ZM23.183,36.552a.578.578,0,0,1,.577-.577h9.49a.579.579,0,0,1,.579.577V49.86H23.182ZM10.8,23.683h-.757a3.242,3.242,0,0,1-3.238-3.238V15.123a.583.583,0,0,1,.584-.582h6.65v5.9A3.242,3.242,0,0,1,10.8,23.683Zm9.041,0h-.757a3.242,3.242,0,0,1-3.238-3.238v-5.9h7.234v5.9a3.243,3.243,0,0,1-3.238,3.238Zm9.039,0h-.757a3.242,3.242,0,0,1-3.238-3.238l0-5.9h7.234v5.9a3.245,3.245,0,0,1-3.24,3.238Zm9.041,0h-.757a3.24,3.24,0,0,1-3.236-3.238v-5.9h7.234v5.9a3.245,3.245,0,0,1-3.24,3.238ZM50.2,20.445a3.242,3.242,0,0,1-3.238,3.238H46.21a3.24,3.24,0,0,1-3.236-3.238l0-5.9h6.65a.584.584,0,0,1,.584.582Z" transform="translate(-5 -12.734)" fill="#fff"/>
</svg>
