<?xml version="1.0" encoding="UTF-8"?>
<svg id="_레이어_2" data-name="레이어_2" xmlns="http://www.w3.org/2000/svg" viewBox="0 0 1771.56 2060.73">
  <defs>
    <style>
      .cls-1 {
        fill: #fff;
      }
    </style>
  </defs>
  <g id="_레이어_1-2" data-name="레이어_1">
    <g id="QJItbx.tif">
      <path class="cls-1" d="M930.84,0c11.33,1.99,22.81,1.52,34.23,2.19,41.88,2.45,83.54,6.79,124.94,13.64,61.88,10.23,122.28,25.99,180.9,48.34,84.37,32.18,161.3,77.05,229.85,135.95,46.26,39.74,87.13,84.49,123.12,133.75,62.35,85.36,106.7,179.52,137.6,280.3,3.31,10.79,6.08,21.76,9.59,32.49,1.28,3.91.02,4.88-3.32,5.75-20.91,5.45-41.8,11-62.68,16.57-33.7,8.99-67.41,17.96-101.06,27.12-3.93,1.07-5.36.37-6.48-3.65-15.73-56.33-36.17-110.87-63.08-162.86-33.84-65.41-76.59-124.15-130.86-174.29-59.58-55.05-127.93-95.47-203.87-123.48-74.74-27.56-152.2-41.63-231.42-47.2-64.07-4.51-127.92-2.37-191.62,5.81-61.79,7.93-122.03,22.06-180.1,44.7-79.51,31-149.75,76.27-208.89,138.11-48.17,50.37-85.81,107.95-115.4,170.9-31.28,66.55-52.69,136.3-67.27,208.28-9.89,48.81-16.73,98.02-21,147.62-4.77,55.43-7.04,110.93-5.4,166.56,1.48,50.42,5.02,100.69,11.39,150.76,9.17,72.07,23.93,142.87,47.13,211.81,22.56,67.05,52.65,130.39,93.23,188.49,33,47.24,71.96,88.89,117.49,124.34,55.56,43.26,117.35,74.65,184.08,96.5,71.44,23.39,145.02,34.94,219.94,38.9,61.29,3.24,122.37.67,183.21-7.05,61.8-7.84,121.92-22.28,179.37-46.93,59.63-25.6,112.63-61.18,159.9-105.51,27.54-25.82,52.43-53.85,72.86-85.71,33.38-52.04,53.58-108.66,59.26-170.33,4.88-53-1.28-104.68-19.31-154.76-16.74-46.49-44.47-85.68-80.76-118.99-17.7-16.25-36.9-30.52-57.27-43.24-5.12-3.2-5.21-3.2-6.01,2.66-4.69,34.51-11.61,68.56-21.22,102.03-18.83,65.6-47.32,126.32-91.19,179.19-30.74,37.03-66.98,67.43-109.25,90.53-56.46,30.85-117.3,46.21-181.07,51.31-56.55,4.52-112.36.36-167.22-14.29-62.2-16.61-118.48-44.67-166.07-88.57-51.09-47.12-83.83-104.88-96.86-173.26-11.43-60.04-7.99-119.25,12.82-177.06,18.14-50.38,47.96-92.85,87.75-128.43,43.36-38.77,93.69-65.22,148.6-83.43,41.37-13.72,83.86-22.01,127.22-26.11,48.62-4.6,97.36-5.06,146.11-3.51,43.77,1.4,87.3,5.75,130.52,12.87,3.23.53,4.19.11,3.59-3.18-8.28-45.86-21.7-89.75-48.39-128.71-23.89-34.89-55.89-59.31-95.13-74.53-44.92-17.42-91.74-21.65-139.36-19.52-32.45,1.45-64.01,7.65-94.39,19.41-46.69,18.08-84.05,47.93-112.29,89.19-2.36,3.45-3.84,3.31-6.92,1.19-46.86-32.25-93.77-64.43-140.78-96.46-3.39-2.31-1.83-3.84-.46-5.87,22.45-33.33,48.87-63.11,79.66-88.94,31.57-26.49,66.41-47.71,104.31-63.82,57.25-24.33,117.2-35.71,179.25-36.9,52.03-1,103.38,3.99,153.63,17.86,96.18,26.56,172.48,80.56,226.22,165.27,34.69,54.68,55.32,114.75,67.61,177.96,6.07,31.24,9.87,62.77,11.67,94.53.28,4.94,1.84,7.52,6.5,9.52,36.78,15.81,71.77,34.97,104.81,57.58,55.64,38.08,103.31,84.23,140.87,140.43,27.38,40.97,47.51,85.33,61.11,132.7,15.83,55.14,22.85,111.39,21.26,168.67-1.33,47.78-8.7,94.67-22.24,140.57-20.3,68.81-53.02,131.19-96.92,187.78-31.04,40.01-66.83,75.41-105.52,107.95-47.73,40.14-99.78,73.57-156.27,100-59.52,27.84-121.84,46.93-186.27,59.37-53.85,10.4-108.25,15.82-163,18.5-96.58,4.73-192.18-2.88-286.76-22.73-74.58-15.65-146.13-40.26-213.84-75.46-61.02-31.72-116.73-70.95-166.77-118.23-51.85-49-95.71-104.33-132.71-165.25-36.24-59.68-64.64-122.96-86.97-189-20.05-59.29-34.77-119.96-45.46-181.61-7.19-41.47-12.55-83.17-16.28-125.1C2.74,1133.73.26,1085.39.02,1036.95c-.23-44.6,1.72-89.1,4.98-133.58,3.55-48.46,9.28-96.66,17.44-144.54,9.11-53.46,21.27-106.23,37.2-158.1,20.28-66,46.42-129.55,80-189.91,31.26-56.19,68.39-108.2,111.99-155.56,33.59-36.49,70.45-69.27,110.63-98.29,43.42-31.37,89.81-57.59,138.88-79.08,72.52-31.76,148.23-52.25,226.33-64.29,40.49-6.24,81.22-10.08,122.14-11.97,7.76-.36,15.6.15,23.27-1.61h57.97ZM982.63,1056.95c-15.48.24-41.72.56-67.93,2.5-36.46,2.7-72.29,8.48-106.89,20.61-32.44,11.37-61.9,27.58-85.94,52.73-42.17,44.1-51.99,110.96-23.76,163.06,16.29,30.08,41.15,51.07,71.2,66.29,34.67,17.55,71.82,25.7,110.4,27.87,32.39,1.82,64.5-.81,96.16-7.78,44.03-9.69,82.3-29.9,112.86-63.59,25.68-28.31,42.76-61.54,55.21-97.36,15.95-45.9,23.37-93.47,27.82-141.64.33-3.57-1.28-4.08-3.98-4.65-28.82-6.14-57.91-10.45-87.21-13.41-28.98-2.92-58.04-4.27-97.94-4.63Z"/>
    </g>
  </g>
</svg>