<?xml version="1.0" encoding="UTF-8"?>
<svg id="_레이어_2" data-name="레이어_2" xmlns="http://www.w3.org/2000/svg" viewBox="0 0 868.77 612.11">
  <defs>
    <style>
      .cls-1 {
        fill: #fff;
      }
    </style>
  </defs>
  <g id="_레이어_1-2" data-name="레이어_1">
    <g id="BoYWXP">
      <path class="cls-1" d="M559.37,609.19c-52.63,2.26-105.29,3.59-157.94,2.57-52.79-1.03-105.57-2.88-158.34-4.68-37.79-1.29-75.64-1.57-113.34-4.98-19.17-1.74-37.83-5.91-55.43-14.04-23.48-10.85-39.5-28.57-49.9-52.17-11.91-27.03-15.3-55.61-18.15-84.56C-.58,381.86-.72,312.24.75,242.59c.84-39.82,3.5-79.57,9.65-118.98,2.97-19.06,8.74-37.24,17.5-54.47C44.68,36.15,71.86,17.5,108.04,12.25c37.65-5.46,75.67-6.29,113.65-7.4C310.13,2.27,398.58-1.48,487.06.61c63.11,1.48,126.24,3.09,189.33,5.38,27.47,1,54.94,1.93,82.19,5.99,42.33,6.29,71.5,28.86,87.74,68.82,10.54,25.94,13.4,53.06,16.14,80.46,6.88,68.8,7.04,137.77,5.54,206.75-.91,41.81-3.28,83.6-10.7,124.87-3.53,19.61-9.33,38.73-19.58,55.85-19.39,32.37-49,48.83-86.15,52.38-59.1,5.65-118.42,6.69-177.72,8.08-4.83.11-9.66.01-14.48.01ZM578.67,297.23c-2.84-1.55-4.57-2.53-6.33-3.45-30.71-16.02-61.43-32.02-92.14-48.05-43.39-22.66-86.8-45.3-130.13-68.06-3.68-1.93-5.46-2.12-4.92,2.75.07.66,0,1.33,0,2,.02,76.65.03,153.31.05,229.96q0,6,5.22,3.31c63.72-33.03,127.43-66.05,191.14-99.09,12.08-6.26,24.12-12.59,37.1-19.37Z"/>
    </g>
  </g>
</svg>